<svg width="33" height="34" viewBox="0 0 33 34" fill="none" xmlns="http://www.w3.org/2000/svg">
<g clip-path="url(#clip0_1_3622)">
<mask id="mask0_1_3622" style="mask-type:luminance" maskUnits="userSpaceOnUse" x="0" y="0" width="33" height="34">
<path d="M32.4998 0H0.499756V33.0323H32.4998V0Z" fill="white"/>
</mask>
<g mask="url(#mask0_1_3622)">
<g filter="url(#filter0_d_1_3622)">
<path d="M8.49967 19.2688C9.97243 19.2688 11.1663 18.0364 11.1663 16.5161C11.1663 14.9958 9.97243 13.7634 8.49967 13.7634C7.02691 13.7634 5.83301 14.9958 5.83301 16.5161C5.83301 18.0364 7.02691 19.2688 8.49967 19.2688Z" stroke="#9C9C9C" stroke-width="1.5" stroke-linejoin="round"/>
</g>
<g filter="url(#filter1_d_1_3622)">
<path d="M16.4997 19.2688C17.9724 19.2688 19.1663 18.0364 19.1663 16.5161C19.1663 14.9958 17.9724 13.7634 16.4997 13.7634C15.0269 13.7634 13.833 14.9958 13.833 16.5161C13.833 18.0364 15.0269 19.2688 16.4997 19.2688Z" stroke="#9C9C9C" stroke-width="1.5" stroke-linejoin="round"/>
</g>
<g filter="url(#filter2_d_1_3622)">
<path d="M24.4997 19.2688C25.9724 19.2688 27.1663 18.0364 27.1663 16.5161C27.1663 14.9958 25.9724 13.7634 24.4997 13.7634C23.0269 13.7634 21.833 14.9958 21.833 16.5161C21.833 18.0364 23.0269 19.2688 24.4997 19.2688Z" stroke="#9C9C9C" stroke-width="1.5" stroke-linejoin="round"/>
</g>
</g>
</g>
<defs>
<filter id="filter0_d_1_3622" x="2.58301" y="13.0134" width="11.8333" height="12.0054" filterUnits="userSpaceOnUse" color-interpolation-filters="sRGB">
<feFlood flood-opacity="0" result="BackgroundImageFix"/>
<feColorMatrix in="SourceAlpha" type="matrix" values="0 0 0 0 0 0 0 0 0 0 0 0 0 0 0 0 0 0 127 0" result="hardAlpha"/>
<feOffset dy="2.5"/>
<feGaussianBlur stdDeviation="1.25"/>
<feColorMatrix type="matrix" values="0 0 0 0 0 0 0 0 0 0 0 0 0 0 0 0 0 0 0.1 0"/>
<feBlend mode="normal" in2="BackgroundImageFix" result="effect1_dropShadow_1_3622"/>
<feBlend mode="normal" in="SourceGraphic" in2="effect1_dropShadow_1_3622" result="shape"/>
</filter>
<filter id="filter1_d_1_3622" x="10.583" y="13.0134" width="11.8333" height="12.0054" filterUnits="userSpaceOnUse" color-interpolation-filters="sRGB">
<feFlood flood-opacity="0" result="BackgroundImageFix"/>
<feColorMatrix in="SourceAlpha" type="matrix" values="0 0 0 0 0 0 0 0 0 0 0 0 0 0 0 0 0 0 127 0" result="hardAlpha"/>
<feOffset dy="2.5"/>
<feGaussianBlur stdDeviation="1.25"/>
<feColorMatrix type="matrix" values="0 0 0 0 0 0 0 0 0 0 0 0 0 0 0 0 0 0 0.1 0"/>
<feBlend mode="normal" in2="BackgroundImageFix" result="effect1_dropShadow_1_3622"/>
<feBlend mode="normal" in="SourceGraphic" in2="effect1_dropShadow_1_3622" result="shape"/>
</filter>
<filter id="filter2_d_1_3622" x="18.583" y="13.0134" width="11.8333" height="12.0054" filterUnits="userSpaceOnUse" color-interpolation-filters="sRGB">
<feFlood flood-opacity="0" result="BackgroundImageFix"/>
<feColorMatrix in="SourceAlpha" type="matrix" values="0 0 0 0 0 0 0 0 0 0 0 0 0 0 0 0 0 0 127 0" result="hardAlpha"/>
<feOffset dy="2.5"/>
<feGaussianBlur stdDeviation="1.25"/>
<feColorMatrix type="matrix" values="0 0 0 0 0 0 0 0 0 0 0 0 0 0 0 0 0 0 0.1 0"/>
<feBlend mode="normal" in2="BackgroundImageFix" result="effect1_dropShadow_1_3622"/>
<feBlend mode="normal" in="SourceGraphic" in2="effect1_dropShadow_1_3622" result="shape"/>
</filter>
<clipPath id="clip0_1_3622">
<rect width="32" height="33.0323" fill="white" transform="translate(0.499756)"/>
</clipPath>
</defs>
</svg>
