<svg width="25" height="25" viewBox="0 0 25 25" fill="none" xmlns="http://www.w3.org/2000/svg">
<path d="M9.85034 11.8394C9.85034 13.2201 8.73105 14.3394 7.35034 14.3394C5.96963 14.3394 4.85034 13.2201 4.85034 11.8394C4.85034 10.4587 5.96963 9.33936 7.35034 9.33936C8.73105 9.33936 9.85034 10.4587 9.85034 11.8394Z" stroke="#468585" stroke-width="2"/>
<path opacity="0.5" d="M15.1709 17.1411L9.85034 13.6294" stroke="#468585" stroke-width="2" stroke-linecap="round"/>
<path opacity="0.5" d="M15.271 7.1792L9.95044 10.6909" stroke="#468585" stroke-width="2" stroke-linecap="round"/>
<path d="M19.8503 18.8394C19.8503 20.2201 18.731 21.3394 17.3503 21.3394C15.9696 21.3394 14.8503 20.2201 14.8503 18.8394C14.8503 17.4587 15.9696 16.3394 17.3503 16.3394C18.731 16.3394 19.8503 17.4587 19.8503 18.8394Z" stroke="#468585" stroke-width="2"/>
<path d="M19.8503 5.83936C19.8503 7.22007 18.731 8.33936 17.3503 8.33936C15.9696 8.33936 14.8503 7.22007 14.8503 5.83936C14.8503 4.45865 15.9696 3.33936 17.3503 3.33936C18.731 3.33936 19.8503 4.45865 19.8503 5.83936Z" stroke="#468585" stroke-width="2"/>
</svg>
