<svg width="25" height="25" viewBox="0 0 25 25" fill="none" xmlns="http://www.w3.org/2000/svg">
<path d="M9.8504 11.8394C9.8504 13.2201 8.73111 14.3394 7.3504 14.3394C5.96969 14.3394 4.8504 13.2201 4.8504 11.8394C4.8504 10.4587 5.96969 9.33936 7.3504 9.33936C8.73111 9.33936 9.8504 10.4587 9.8504 11.8394Z" stroke="#468585" stroke-width="2"/>
<path opacity="0.5" d="M15.171 17.1411L9.8504 13.6294" stroke="#468585" stroke-width="2" stroke-linecap="round"/>
<path opacity="0.5" d="M15.2711 7.1792L9.9505 10.6909" stroke="#468585" stroke-width="2" stroke-linecap="round"/>
<path d="M19.8504 18.8394C19.8504 20.2201 18.7311 21.3394 17.3504 21.3394C15.9697 21.3394 14.8504 20.2201 14.8504 18.8394C14.8504 17.4587 15.9697 16.3394 17.3504 16.3394C18.7311 16.3394 19.8504 17.4587 19.8504 18.8394Z" stroke="#468585" stroke-width="2"/>
<path d="M19.8504 5.83936C19.8504 7.22007 18.7311 8.33936 17.3504 8.33936C15.9697 8.33936 14.8504 7.22007 14.8504 5.83936C14.8504 4.45865 15.9697 3.33936 17.3504 3.33936C18.7311 3.33936 19.8504 4.45865 19.8504 5.83936Z" stroke="#468585" stroke-width="2"/>
</svg>
