<svg width="18" height="13" viewBox="0 0 18 13" fill="none" xmlns="http://www.w3.org/2000/svg">
<path fill-rule="evenodd" clip-rule="evenodd" d="M16.9223 3.81289C12.3713 -0.546681 5.36778 -0.546681 0.81675 3.81289C0.735538 3.89145 0.688689 4.00111 0.687056 4.11647C0.685423 4.23183 0.729148 4.34289 0.8081 4.42389L1.68363 5.32389C1.8419 5.48826 2.09683 5.49268 2.26027 5.33389C6.00646 1.77626 11.7412 1.77626 15.4874 5.33389C15.6509 5.49268 15.9058 5.48826 16.0641 5.32389L16.9396 4.42389C17.0175 4.34168 17.0596 4.22992 17.0564 4.11455C17.0531 3.99918 17.0047 3.8902 16.9223 3.81289ZM8.86957 9.05688C8.20875 9.05688 7.613 9.47108 7.36012 10.1063C7.10724 10.7416 7.24702 11.4728 7.71429 11.959C8.18155 12.4452 8.88428 12.5906 9.4948 12.3275C10.1053 12.0644 10.5034 11.4445 10.5034 10.7569C10.5034 9.818 9.7719 9.05688 8.86957 9.05688ZM3.68761 6.83289C6.65153 4.12211 11.0888 4.12211 14.0527 6.83289C14.1367 6.91042 14.186 7.02081 14.1887 7.13763C14.1915 7.25445 14.1474 7.36719 14.0671 7.44889L13.1868 8.34889C13.0326 8.50735 12.7874 8.51647 12.6226 8.36989C10.4643 6.44126 7.276 6.44126 5.11768 8.36989C4.95295 8.51647 4.70778 8.50735 4.55354 8.34889L3.6732 7.44889C3.5929 7.36719 3.54885 7.25445 3.55158 7.13763C3.55431 7.02081 3.60359 6.91042 3.68761 6.83289Z" fill="#1C2340"/>
</svg>
