<svg width="29" height="28" viewBox="0 0 29 28" fill="none" xmlns="http://www.w3.org/2000/svg">
<path d="M24.2769 14.9013L13.7016 4.44666L13.7045 4.44969C12.5125 3.25715 10.9429 2.65762 9.38025 2.65869C7.8176 2.65767 6.24792 3.25715 5.05582 4.44973C3.86297 5.64223 3.26385 7.21147 3.26465 8.77425C3.26385 10.3371 3.86297 11.9066 5.05587 13.0989L15.6308 23.5532L15.628 23.5502C16.8204 24.7427 18.3896 25.3418 19.9522 25.3412C21.5151 25.3418 23.0843 24.7427 24.2766 23.5505C25.4695 22.3576 26.0686 20.7877 26.068 19.2252C26.0686 17.6627 25.4697 16.0935 24.2769 14.9013ZM6.81003 10.535C5.79702 9.52217 5.79702 7.85263 6.82281 6.82702C7.31945 6.3302 7.97999 6.05687 8.68283 6.05687L6.81003 10.535ZM23.2466 22.5204C22.3351 23.4312 21.1471 23.884 19.9522 23.8843C18.7574 23.884 17.5693 23.4312 16.6576 22.5201L16.6553 22.5178L16.6549 22.5171L11.7822 17.7C11.7965 17.6062 11.8181 17.4961 11.8492 17.3739C11.962 16.9225 12.189 16.3147 12.5315 15.6717C13.0446 14.7057 13.8178 13.6582 14.8397 12.8507C15.8568 12.0483 17.1046 11.4747 18.6513 11.3879L23.2448 15.9288L23.247 15.9305C24.1578 16.8423 24.6105 18.0302 24.6115 19.2251C24.6105 20.4201 24.1581 21.6083 23.2466 22.5204Z" fill="#9C9C9C"/>
</svg>
