<svg width="29" height="28" viewBox="0 0 29 28" fill="none" xmlns="http://www.w3.org/2000/svg">
<path d="M14.3337 7L13.1743 10.5M19.5835 7C21.2143 7 22.0296 7 22.6729 7.26642C23.5304 7.62165 24.2119 8.30302 24.567 9.16061C24.8335 9.8038 24.8335 10.6192 24.8335 12.25V18.9C24.8335 20.8602 24.8335 21.8402 24.452 22.589C24.1165 23.2476 23.5811 23.783 22.9225 24.1185C22.1737 24.5 21.1937 24.5 19.2335 24.5H9.4335C7.47331 24.5 6.49322 24.5 5.74453 24.1185C5.08596 23.783 4.55053 23.2476 4.21497 22.589C3.8335 21.8402 3.8335 20.8602 3.8335 18.9V12.25C3.8335 10.6192 3.8335 9.8038 4.09992 9.16061C4.45514 8.30302 5.13651 7.62165 5.9941 7.26642C6.6373 7 7.45271 7 9.0835 7M12.0002 19.8333H16.6668M12.6319 3.5H16.0354C17.2965 3.5 17.9271 3.5 18.3937 3.71631C19.016 4.00472 19.4799 4.55232 19.6621 5.21358C19.7987 5.70951 19.6951 6.33148 19.4878 7.5754C19.3341 8.49772 19.2572 8.95888 19.0525 9.31908C18.7798 9.79935 18.3454 10.1673 17.8268 10.3574C17.438 10.5 16.9704 10.5 16.0354 10.5H12.6319C11.6969 10.5 11.2294 10.5 10.8404 10.3574C10.3219 10.1673 9.88754 9.79935 9.61475 9.31908C9.41015 8.95888 9.33329 8.49772 9.17957 7.5754C8.97225 6.33148 8.8686 5.70951 9.00522 5.21358C9.1874 4.55232 9.6513 4.00472 10.2736 3.71631C10.7403 3.5 11.3709 3.5 12.6319 3.5Z" stroke="#9C9C9C" stroke-width="2" stroke-linecap="round" stroke-linejoin="round"/>
</svg>
