<svg width="23" height="12" viewBox="0 0 23 12" fill="none" xmlns="http://www.w3.org/2000/svg">
<path fill-rule="evenodd" clip-rule="evenodd" d="M19.3938 0.542969H2.1878C1.29715 0.542969 0.575134 1.29423 0.575134 2.22097V10.053C0.575134 10.498 0.74504 10.9248 1.04747 11.2395C1.34991 11.5542 1.7601 11.731 2.1878 11.731H19.3909C20.2815 11.731 21.0036 10.9797 21.0036 10.053V9.49297H21.2727C21.718 9.49297 22.079 9.11734 22.079 8.65397V3.61997C22.079 3.39745 21.994 3.18405 21.8428 3.02671C21.6916 2.86936 21.4865 2.78097 21.2727 2.78097H21.0036V2.22097C21.0036 1.29541 20.2833 0.544624 19.3938 0.542969ZM18.8564 2.78101V5.01901H19.9319V7.25701H18.8564V9.49301H2.72588V2.78101H18.8564ZM3.80145 3.90002H14.5548V8.37602H3.80145V3.90002Z" fill="#1C2340"/>
</svg>
