<svg width="18" height="16" viewBox="0 0 18 16" fill="none" xmlns="http://www.w3.org/2000/svg">
<path fill-rule="evenodd" clip-rule="evenodd" d="M15.4025 6.51021C16.3766 5.4063 17.6841 2.90407 15.8776 1.03765C15.2443 0.383504 14.4579 0.0304246 13.6028 0.0164215C11.9181 -0.0112514 10.5476 1.26603 10.3969 1.41173L10.3966 1.41207C10.0279 1.34038 9.63298 1.29971 9.20849 1.29971C8.65882 1.29971 8.15337 1.36806 7.68635 1.48475L7.60744 1.41407L7.60472 1.41207C7.45404 1.26603 6.08361 -0.0112514 4.39889 0.0160881C3.54411 0.0300912 2.75736 0.38317 2.12368 1.03798C0.321272 2.90007 1.61959 5.39496 2.59274 6.50288C1.91824 7.12368 0.343721 8.85407 0.972983 11.0392C1.89273 14.2353 4.76896 14.3433 4.96148 14.3466H5.47952C6.36592 15.4762 7.88057 15.9843 8.99998 15.9843C10.0279 15.9843 11.5527 15.5532 12.498 14.3466H13.0167C13.2194 14.3433 16.0957 14.2353 17.0154 11.0392C17.643 8.8584 16.0766 7.13135 15.4025 6.51021ZM16.033 10.7676C15.3239 13.2324 13.2418 13.3421 13.0167 13.3468H12.1286C11.8582 13.3468 11.6388 13.5532 11.6211 13.8139C10.8833 14.6848 9.70166 14.9842 8.99995 14.9842C8.31354 14.9842 7.14686 14.6954 6.40399 13.8666C6.40415 13.8633 6.40467 13.8603 6.40519 13.8573L6.40607 13.8516C6.40625 13.85 6.40637 13.8485 6.40637 13.8469C6.40637 13.5702 6.17813 13.3468 5.89616 13.3468H4.98118C4.74614 13.3421 2.66413 13.2324 1.95494 10.7676C1.36479 8.71843 3.41449 7.1194 3.49884 7.05472L3.75361 6.86068L3.85089 6.56061C3.90667 6.38691 5.27438 2.30032 9.20845 2.30032C13.0776 2.30032 14.0759 6.31456 14.1157 6.48193L14.1993 6.83267L14.4861 7.05206C14.5735 7.1194 16.6229 8.71843 16.033 10.7676ZM4.41601 1.01633C3.89865 1.02466 3.36021 1.21404 2.86395 1.72649C1.5561 3.07779 2.62823 4.86886 3.15307 5.58035C3.60715 4.59713 4.66227 2.79706 6.59428 1.87619C6.1657 1.54411 5.32487 1.00132 4.41601 1.01633ZM13.5853 1.01669C14.1027 1.02469 14.6414 1.21406 15.137 1.72651C16.4214 3.05281 15.4129 4.80187 14.8789 5.5387C14.4826 4.5048 13.5248 2.64105 11.5475 1.77119C12.0043 1.44145 12.7679 1.00335 13.5853 1.01669ZM9.43799 13.1817C9.48663 13.2311 9.56214 13.2681 9.67643 13.2681C10.0237 13.2681 10.0383 12.9393 10.0383 12.9357L10.7183 12.9657V12.9687C10.6969 13.4374 10.3244 13.9349 9.67643 13.9349C9.41418 13.9349 9.17676 13.8445 8.99614 13.6838C8.81519 13.8445 8.57777 13.9349 8.31586 13.9349C7.66789 13.9349 7.29578 13.4374 7.27401 12.9687V12.9657L7.95395 12.9357C7.95395 12.9393 7.96892 13.2681 8.31586 13.2681C8.43015 13.2681 8.50532 13.2311 8.5543 13.1817C8.65158 13.084 8.64784 12.9393 8.64784 12.9393V12.2102C8.1145 11.9718 7.49476 11.2886 7.49476 10.8462C7.49476 10.3024 8.05565 10.3024 8.05565 10.3024H8.9907H9.92643C9.92643 10.3024 10.4877 10.3024 10.4877 10.8462C10.4877 11.2863 9.87541 11.9628 9.34411 12.2052V12.9393C9.34411 12.9393 9.34071 13.084 9.43799 13.1817ZM12.0468 7.30118C11.6713 7.30118 11.3665 7.74928 11.3665 8.30174C11.3665 8.85353 11.6713 9.30163 12.0468 9.30163C12.4227 9.30163 12.7271 8.85353 12.7271 8.30174C12.7271 7.74928 12.4227 7.30118 12.0468 7.30118ZM5.24368 8.30174C5.24368 7.74928 5.54844 7.30118 5.92396 7.30118C6.29982 7.30118 6.60424 7.74928 6.60424 8.30174C6.60424 8.85353 6.29982 9.30163 5.92396 9.30163C5.54844 9.30163 5.24368 8.85353 5.24368 8.30174Z" fill="#757677"/>
</svg>
