<svg width="22" height="18" viewBox="0 0 22 18" fill="none" xmlns="http://www.w3.org/2000/svg">
<path fill-rule="evenodd" clip-rule="evenodd" d="M10.6235 18C10.4356 18 10.2444 18 10.0533 17.9964C9.89398 17.9964 9.73469 17.9964 9.5754 17.9892C9.22536 17.9847 8.8761 17.951 8.53045 17.8884C8.18404 17.8195 7.84821 17.6946 7.5333 17.5176C7.22176 17.3353 6.93699 17.0997 6.68906 16.8192C6.68141 16.8106 6.66666 16.793 6.64979 16.773L6.64977 16.773L6.64973 16.7729C6.61741 16.7346 6.57737 16.687 6.56481 16.6752C6.47242 16.5744 6.38004 16.4736 6.29083 16.3728L5.96588 16.0056L3.76768 13.518C3.69122 13.4424 3.63706 13.3812 3.58609 13.3236L1.41655 10.872C1.35602 10.8 1.29231 10.728 1.22859 10.656C1.17443 10.5948 1.12346 10.5336 1.07249 10.4724C0.915024 10.2992 0.767136 10.1153 0.629659 9.9216C0.535713 9.81398 0.461069 9.68685 0.409839 9.5472C0.307886 9.1915 0.307886 8.8085 0.409839 8.4528C0.46185 8.31363 0.536401 8.18665 0.629659 8.0784C0.76795 7.8855 0.915796 7.70161 1.07249 7.5276C1.12346 7.4664 1.17443 7.4052 1.22859 7.344L1.41655 7.1316L3.39494 4.8924L3.39495 4.89238L3.39497 4.89237C3.45867 4.82038 3.52238 4.74839 3.58609 4.68C3.63706 4.6188 3.69122 4.5576 3.74538 4.5L6.29083 1.6272C6.38004 1.5264 6.47242 1.4256 6.56481 1.3248C6.57737 1.31297 6.61743 1.26541 6.64976 1.22702L6.64978 1.227C6.66665 1.20697 6.68141 1.18944 6.68906 1.1808C6.93699 0.900293 7.22176 0.664719 7.5333 0.4824C7.84821 0.305351 8.18404 0.180469 8.53045 0.1116C8.87602 0.0477967 9.22528 0.0129019 9.5754 0.0072C9.65504 0.0054 9.73469 0.0045 9.81433 0.0036C9.89398 0.0027 9.97362 0.0018 10.0533 0H17.5941C17.6737 0.0018 17.7534 0.0027 17.833 0.0036C17.9126 0.0045 17.9923 0.0054 18.0719 0.0072C18.4231 0.013219 18.7734 0.0481112 19.1201 0.1116C19.4644 0.180518 19.7982 0.305414 20.1109 0.4824C20.4244 0.662826 20.7104 0.898585 20.9583 1.1808C21.206 1.46063 21.4135 1.78252 21.5731 2.1348C21.7303 2.49045 21.8408 2.87002 21.9013 3.2616C21.9565 3.6522 21.9864 4.04686 21.9905 4.4424C21.9947 4.56215 21.9961 4.68349 21.9975 4.80431V4.80448C21.9983 4.86521 21.999 4.92581 22 4.986V13.014C21.999 13.0742 21.9983 13.1348 21.9975 13.1955V13.1957C21.9961 13.3165 21.9947 13.4378 21.9905 13.5576C21.9862 13.9531 21.9564 14.3478 21.9013 14.7384C21.8403 15.1299 21.7298 15.5093 21.5731 15.8652C21.4135 16.2175 21.206 16.5394 20.9583 16.8192C20.7104 17.1014 20.4244 17.3372 20.1109 17.5176C19.7982 17.6946 19.4644 17.8195 19.1201 17.8884C18.7733 17.9507 18.423 17.9844 18.0719 17.9892C17.9126 17.9964 17.7534 17.9964 17.5941 17.9964C17.4029 18 17.215 18 17.0238 18H10.6235ZM1.96123 9.44042L2.00042 9.48546C2.06816 9.56678 2.09657 9.60037 2.12965 9.63775C2.22624 9.7469 2.27354 9.80093 2.3287 9.86628L4.48714 12.3054C4.52461 12.3477 4.53963 12.3646 4.55879 12.3859C4.60265 12.429 4.63612 12.4629 4.66939 12.5005L6.86694 14.9874L7.19189 15.3546C7.22894 15.3964 7.26907 15.4411 7.3157 15.4924C7.34809 15.528 7.37529 15.5578 7.42875 15.6161C7.45156 15.6396 7.47163 15.6621 7.49787 15.6922L7.52653 15.7255L7.54918 15.7522L7.55018 15.7534C7.5919 15.8028 7.59464 15.8061 7.59067 15.8016C7.74591 15.9772 7.92422 16.1247 8.10092 16.2283C8.30629 16.3438 8.52531 16.4253 8.73211 16.4665C9.01584 16.5179 9.30255 16.5456 9.58989 16.5493C9.73643 16.5553 9.83129 16.5564 10.0745 16.5566C10.2242 16.5594 10.347 16.56 10.6235 16.56H17.0238C17.165 16.56 17.2269 16.5599 17.3036 16.5595C17.4027 16.5591 17.4898 16.5581 17.594 16.5564C17.816 16.5564 17.9109 16.5553 18.021 16.5503C18.3457 16.5453 18.6343 16.5176 18.8978 16.4705C19.1211 16.4258 19.3374 16.3448 19.5325 16.2344C19.7254 16.1234 19.9013 15.9784 20.0573 15.8008C20.2111 15.6271 20.3398 15.4273 20.4322 15.2237C20.5344 14.9917 20.6065 14.7442 20.6428 14.5116C20.6882 14.1902 20.7127 13.8655 20.7162 13.5401C20.7195 13.4348 20.7209 13.3639 20.7222 13.2644L20.7233 13.1759C20.7244 13.0824 20.725 13.0396 20.7257 13.014L20.7259 5.01478C20.725 4.96038 20.7244 4.91755 20.7233 4.82408L20.7222 4.73557C20.7209 4.63605 20.7195 4.56518 20.7171 4.49994C20.7128 4.13428 20.6883 3.80994 20.6459 3.50917C20.6067 3.25507 20.5349 3.00876 20.4389 2.79125C20.3398 2.57263 20.2111 2.37286 20.0537 2.1951C19.9013 2.02153 19.7254 1.87654 19.5401 1.76991C19.3374 1.65517 19.1211 1.5742 18.9162 1.53304C18.6305 1.48073 18.3419 1.45198 18.0464 1.4469C17.9857 1.44553 17.9355 1.44482 17.8202 1.44351C17.6965 1.44212 17.6406 1.44133 17.594 1.43999L10.0787 1.4397C10.0067 1.44133 9.95077 1.44212 9.82705 1.44351C9.71183 1.44482 9.66156 1.44553 9.59374 1.44704C9.30632 1.45172 9.0196 1.48036 8.75124 1.5298C8.52531 1.57472 8.30629 1.65616 8.1193 1.76108C7.92422 1.87524 7.74591 2.02275 7.59012 2.19902C7.59464 2.19391 7.59189 2.19717 7.55176 2.24473L7.55094 2.24571L7.52609 2.27499L7.49787 2.30774C7.47163 2.33785 7.45156 2.36037 7.42875 2.38383C7.37529 2.44218 7.34809 2.47194 7.3157 2.50759C7.26907 2.5589 7.22894 2.60355 7.19189 2.64542L4.66555 5.50022L4.62275 5.54419C4.58331 5.58626 4.54736 5.62689 4.51402 5.66691L4.46375 5.72398C4.42149 5.76935 4.38364 5.81158 4.29745 5.90897L2.31761 8.14982L2.12965 8.36222C2.09657 8.3996 2.06816 8.43319 2.00042 8.51451L1.96567 8.55464C1.84329 8.69055 1.72782 8.83417 1.61981 8.98483C1.72849 9.16823 1.84121 9.30843 1.96123 9.44042ZM16.5902 5.04873C16.8307 5.14815 16.9875 5.38297 16.9875 5.6435C16.9875 5.81718 16.9178 5.97945 16.8001 6.09778L16.8069 6.10463L13.9087 9.01001L16.7368 11.8376C16.7626 11.8564 16.7873 11.8774 16.8107 11.9005C16.995 12.0843 17.0505 12.3613 16.9512 12.6021C16.852 12.8429 16.6175 13 16.3573 13C16.1839 13 16.0218 12.9302 15.9037 12.8123L15.8967 12.8193L12.9997 9.92128L10.1052 12.8229L10.0964 12.8142C10.0384 12.8711 9.96918 12.9175 9.89117 12.9498C9.64977 13.0496 9.37209 12.9938 9.18782 12.8085C8.93723 12.5565 8.93723 12.149 9.18782 11.8969C9.22435 11.8602 9.26456 11.8285 9.30743 11.8022L12.0907 9.012L9.18787 6.10818L9.19664 6.09935C9.13972 6.04124 9.09328 5.97184 9.06103 5.89364C8.96135 5.65191 9.01706 5.37383 9.20214 5.1893C9.45383 4.93836 9.86073 4.93836 10.1124 5.1893C10.1491 5.22588 10.1807 5.26614 10.207 5.30906L12.9995 8.10097L15.8187 5.27473C15.8395 5.24483 15.8632 5.2163 15.8896 5.18951C16.0731 5.00488 16.3497 4.9493 16.5902 5.04873Z" fill="black"/>
</svg>
