<svg width="17" height="16" viewBox="0 0 17 16" fill="none" xmlns="http://www.w3.org/2000/svg">
<path fill-rule="evenodd" clip-rule="evenodd" d="M15.5412 9.90403C15.5566 10.0819 14.9851 10.2868 14.9851 10.2868L16.0745 10.9171C16.0745 10.9171 15.9206 11.1033 15.6103 11.2725C16.0014 11.5821 16.0608 11.9258 16.0608 12.2872C16.0608 12.732 15.8895 13.1181 15.3131 13.4791C15.5996 13.7397 15.8818 14.7007 15.8818 14.9977C15.8818 15.5056 14.4345 15.9944 14.1012 15.9944L13.2538 15.9952C12.2354 15.9963 10.5366 15.9981 9.25908 15.9981C8.98344 15.9981 8.71235 15.9986 8.44652 15.9991C7.93003 16 7.43338 16.0009 6.96177 15.9981L1.35593 15.9831L0.0745239 3.64815H5.9442L6.76206 0.359042H6.76373C6.81616 0.15316 7.00118 0 7.22326 0C7.26634 0 7.30742 0.00800838 7.34683 0.0183525L7.34783 0.0166841L7.40694 0.0370388L7.40743 0.037195C7.40808 0.0373949 7.4084 0.037495 7.40894 0.0380398L10.6507 1.14486L10.3434 2.04414L7.55956 1.09314L6.92403 3.64815H8.42385L8.12762 6.68633C8.51635 6.66631 8.9151 6.6553 9.32353 6.6553C12.9126 6.6553 15.8351 7.41309 15.8351 9.20196C15.8351 9.41774 15.7599 9.499 15.6561 9.61133C15.5994 9.67271 15.534 9.74337 15.4677 9.85031C15.4753 9.85532 15.4849 9.8594 15.4947 9.86353C15.5168 9.87287 15.5396 9.88252 15.5412 9.90403ZM1.12384 4.64915L2.15444 14.9976H2.76124C2.75323 14.7007 3.10689 13.771 3.39276 13.5104C2.81635 13.1497 2.54751 12.826 2.54751 12.3809C2.54751 11.9992 2.6507 11.482 3.08351 11.1593C2.54484 10.9741 2.45534 10.5947 2.80099 10.4929C2.96526 10.4441 3.067 10.4645 3.14758 10.4806C3.25489 10.5021 3.32465 10.5161 3.45454 10.3491C3.40995 10.305 3.36731 10.2635 3.32668 10.2239L3.32661 10.2239L3.32656 10.2238C2.96353 9.87031 2.76124 9.67333 2.76124 9.20191C2.76124 7.7851 4.62941 7.01763 7.18754 6.75869L7.42165 4.64915H1.12384ZM15.2748 10.9936L9.35338 12.9536L3.6734 10.9936H15.2748ZM4.23093 14.7351C4.56923 15.0694 5.35237 14.9977 5.35237 14.9977H9.07802H13.7538C13.7538 14.9977 14.1485 14.9947 14.4524 14.6944C14.8882 14.2636 14.3529 13.6543 13.8109 13.6543C13.297 13.6543 11.4677 13.6523 9.57117 13.6502L9.56108 13.6502C7.52301 13.6479 5.40992 13.6456 4.77028 13.6456C4.21691 13.6456 3.89263 14.4001 4.23093 14.7351ZM3.74372 9.21926C3.67358 8.0517 7.38922 7.62492 9.32318 7.62492C11.196 7.62492 14.9193 8.0507 14.8849 9.21926C14.8759 9.53392 13.5865 9.99206 13.5865 9.99206H9.34422H5.07054C5.07054 9.99206 3.76509 9.57229 3.74372 9.21926Z" fill="#757677"/>
</svg>
