<svg width="13" height="16" viewBox="0 0 13 16" fill="none" xmlns="http://www.w3.org/2000/svg">
<path fill-rule="evenodd" clip-rule="evenodd" d="M9.05938 14.9893L9.01462 14.9883H9.05938V13.036L9.16501 12.1666C9.31086 11.0236 9.88817 9.97383 10.785 9.22098C11.9144 8.23307 12.5349 6.80918 12.4791 5.33333C12.4791 2.39268 9.86356 3.05176e-05 6.64925 3.05176e-05C3.43493 3.05176e-05 0.81938 2.39268 0.81938 5.33333C0.763605 6.80918 1.38408 8.23307 2.51347 9.22098C3.41032 9.97383 3.98764 11.0236 4.13349 12.1666L4.23911 13.037V14.9893C4.24956 15.4314 4.58716 15.8014 5.03746 15.8643C5.57055 15.9481 6.10928 15.9934 6.64925 15.9999C7.18922 15.9934 7.72795 15.9481 8.26103 15.8643C8.71134 15.8014 9.04893 15.4314 9.05938 14.9893ZM10.0967 8.47767C9.0339 9.36954 8.33587 10.6278 8.14964 11.9999H5.14851C4.9604 10.6243 4.26265 9.36814 3.18577 8.46416C2.29875 7.68797 1.80276 6.54978 1.84804 5.33334C1.84804 2.95902 3.98946 1.00003 6.64911 1.00003C9.30876 1.00003 11.4502 2.95902 11.4509 5.37005C11.4955 6.54978 10.9995 7.68797 10.0967 8.47767ZM5.26777 13.037V12.9999H8.03044V14.8873C7.55896 14.9575 7.09812 14.9944 6.63628 15C6.19378 14.9944 5.72893 14.9567 5.26751 14.8873L5.26777 13.037ZM7.33521 7.66669C7.33521 7.71929 7.34147 7.77046 7.35332 7.81955L6.6493 8.45075L5.94538 7.81964C5.95724 7.77052 5.96351 7.71932 5.96351 7.66669C5.96351 7.29851 5.65644 7.00003 5.27764 7.00003C4.89885 7.00003 4.59178 7.29851 4.59178 7.66669C4.59178 8.03488 4.89885 8.33336 5.27764 8.33336C5.33527 8.33336 5.39124 8.32645 5.44472 8.31344L6.30629 9.08589V11.3333H6.99216V9.08602L7.8539 8.31341C7.90741 8.32644 7.96341 8.33336 8.02107 8.33336C8.39987 8.33336 8.70694 8.03488 8.70694 7.66669C8.70694 7.29851 8.39987 7.00003 8.02107 7.00003C7.64228 7.00003 7.33521 7.29851 7.33521 7.66669ZM5.27763 14.3333H6.64937V13.6667H5.27763V14.3333Z" fill="white" fill-opacity="0.4"/>
</svg>
