<svg width="23" height="17" viewBox="0 0 23 17" fill="none" xmlns="http://www.w3.org/2000/svg">
<path d="M1.42 6.62C1.42 5.9 1.55 5.23 1.82 4.6C2.09 3.97 2.46 3.42 2.94 2.94C3.42 2.46 3.97 2.09 4.6 1.82C5.23 1.55 5.9 1.42 6.62 1.42C7.34 1.42 8.01 1.55 8.64 1.82C9.27 2.09 9.82 2.46 10.3 2.94C10.78 3.42 11.15 3.97 11.42 4.6C11.69 5.23 11.83 5.9 11.83 6.62C11.83 7.34 11.69 8.01 11.42 8.64C11.15 9.27 10.78 9.82 10.3 10.3C9.82 10.78 9.27 11.15 8.64 11.42C8.01 11.69 7.34 11.83 6.62 11.83C5.9 11.83 5.23 11.69 4.6 11.42C3.97 11.15 3.42 10.78 2.94 10.3C2.46 9.82 2.09 9.27 1.82 8.64C1.55 8.01 1.42 7.34 1.42 6.62ZM0 6.62C0 7.53 0.17 8.39 0.51 9.19C0.85 9.99 1.33 10.69 1.94 11.3C2.55 11.91 3.25 12.38 4.05 12.73C4.85 13.07 5.71 13.24 6.62 13.24C7.34 13.24 8.03 13.13 8.68 12.91C9.33 12.69 9.93 12.38 10.47 12L14.55 16.09C14.65 16.18 14.76 16.25 14.88 16.3C15 16.35 15.12 16.37 15.26 16.37C15.45 16.37 15.61 16.33 15.76 16.24C15.9 16.15 16.02 16.04 16.1 15.89C16.18 15.74 16.22 15.57 16.22 15.39C16.22 15.26 16.2 15.13 16.15 15.02C16.1 14.9 16.04 14.8 15.95 14.71L11.89 10.63C12.32 10.08 12.65 9.46 12.89 8.78C13.13 8.1 13.25 7.38 13.25 6.62C13.25 5.71 13.08 4.85 12.74 4.05C12.4 3.25 11.92 2.55 11.31 1.94C10.7 1.33 10 0.86 9.2 0.51C8.4 0.17 7.54 0 6.63 0C5.72 0 4.86 0.17 4.06 0.51C3.26 0.85 2.56 1.33 1.95 1.94C1.34 2.55 0.87 3.25 0.52 4.05C0.18 4.85 0.00999999 5.71 0.00999999 6.62H0ZM18.99 10.54C19.1 10.54 19.2 10.52 19.29 10.48C19.39 10.44 19.47 10.38 19.55 10.29L22.76 7.08C22.91 6.93 22.98 6.75 22.98 6.54C22.98 6.4 22.95 6.27 22.88 6.15C22.81 6.03 22.72 5.94 22.61 5.88C22.5 5.81 22.37 5.78 22.22 5.78C22 5.78 21.82 5.85 21.68 6L18.53 9.14H19.42L16.27 6C16.12 5.85 15.94 5.78 15.73 5.78C15.59 5.78 15.46 5.81 15.34 5.88C15.22 5.95 15.13 6.04 15.07 6.15C15 6.26 14.97 6.39 14.97 6.54C14.97 6.76 15.05 6.94 15.2 7.09L18.41 10.31C18.49 10.39 18.58 10.45 18.67 10.49C18.76 10.53 18.86 10.55 18.96 10.55L18.99 10.54Z" fill="white"/>
</svg>
