<svg width="17" height="16" viewBox="0 0 17 16" fill="none" xmlns="http://www.w3.org/2000/svg">
<path fill-rule="evenodd" clip-rule="evenodd" d="M8.91373 0C13.332 0 16.9137 3.58172 16.9137 8C16.9137 12.4183 13.332 16 8.91373 16C4.49546 16 0.913734 12.4183 0.913734 8C0.913734 3.58172 4.49546 0 8.91373 0ZM8.92155 9.67585C10.3184 9.67585 11.5816 9.37379 12.4888 9.15684C13.375 8.94493 13.9215 8.81422 13.9215 9.12552C13.9215 11.8869 11.683 14.1255 8.92155 14.1255C6.16012 14.1255 3.92155 11.8869 3.92155 9.12552C3.92155 8.81422 4.46813 8.94493 5.35428 9.15684L5.35429 9.15684L5.35429 9.15685L5.3543 9.15685C6.26153 9.3738 7.52466 9.67585 8.92155 9.67585ZM12.0817 6C12.0817 5.44767 11.746 5 11.3317 5C10.9174 5 10.5817 5.44767 10.5817 6C10.5817 6.55233 10.9174 7 11.3317 7C11.746 7 12.0817 6.55233 12.0817 6ZM6.66207 5C7.0754 5 7.4104 5.44733 7.4104 6C7.4104 6.55267 7.07707 7 6.66207 7C6.24707 7 5.91373 6.55267 5.91373 6C5.91373 5.44733 6.24873 5 6.66207 5ZM12.0097 10.1327C11.3112 10.3154 10.2407 10.5955 8.91373 10.5955C7.58676 10.5955 6.51625 10.3154 5.8178 10.1327C5.23722 9.98075 4.91373 9.8961 4.91373 10.0955C4.91373 12.0095 7.82173 12.0955 8.91373 12.0955C10.1397 12.0955 12.9137 12.0092 12.9137 10.0955C12.9137 9.8961 12.5902 9.98075 12.0097 10.1327Z" fill="white" fill-opacity="0.4"/>
</svg>
