<svg width="16" height="16" viewBox="0 0 16 16" fill="none" xmlns="http://www.w3.org/2000/svg">
<path fill-rule="evenodd" clip-rule="evenodd" d="M11.2716 0L11.2468 5.01916C11.2468 5.01916 10.29 4.7906 9.6261 5.15205C8.56792 5.72978 8.57436 6.5497 8.80812 7.18523C9.21728 8.29817 12.2931 7.76097 12.2931 5.61483V1.32157C12.2931 1.32157 13.7706 2.05577 13.8714 3.4295C13.911 3.96781 13.6637 4.40328 13.4636 4.75564C13.2659 5.10393 13.1142 5.37102 13.3313 5.57596C13.3313 5.57596 14.5737 4.45439 14.5964 3.38133C14.6456 0.984697 12.8929 0 11.2722 0H11.2716ZM7.04571 15.9285H5.79042L5.11188 15.1847C4.538 15.6872 3.79787 15.9694 3.02809 15.9793C1.72088 15.9793 0.727844 15.2142 0.727844 14.0299C0.727844 13.1485 1.27814 12.6073 2.03573 12.189C2.12054 12.1392 2.21045 12.0947 2.30511 12.0502C1.85591 11.5794 1.46677 11.1137 1.46677 10.4991C1.46677 9.64326 2.20502 8.93762 3.2381 8.93762C4.21112 8.93762 5.00942 9.56917 5.00942 10.5057C5.00942 11.3485 4.34547 11.8293 3.58211 12.2306L5.0352 13.8761C5.28285 13.3536 5.39841 12.7804 5.3721 12.205V11.9472H6.26064V12.2346C6.30457 13.0391 6.11232 13.8392 5.70662 14.5402L7.04571 15.9285ZM12.1096 12.4688L9.67703 15.9687L8.44073 16L11.1746 12.3512L13.6821 8.95593H14.8831L12.1096 12.4688ZM7.7296 3.64839L4.72955 3.64921V7.6666H3.72955V3.64948L0.396301 3.65039V2.65039H7.7296V3.64839ZM7.7296 0.657104H0.396301V1.6571H7.7296V0.657104ZM12.2383 14.2563C12.2383 15.1964 12.7472 15.9416 13.6405 15.9416C14.5488 15.9416 15.0628 15.1715 15.0628 14.2662V14.1264C15.0628 13.1912 14.5389 12.4563 13.6504 12.4563C12.7618 12.4563 12.2383 13.2015 12.2383 14.1174V14.2563ZM9.5695 12.4439C8.6762 12.4439 8.1673 11.6988 8.1673 10.7586V10.6211C8.1673 9.70513 8.69079 8.95996 9.57934 8.95996C10.4679 8.95996 10.9917 9.69483 10.9917 10.63V10.7686C10.9917 11.6739 10.4777 12.4439 9.5695 12.4439ZM2.59935 12.7413C2.66924 12.7018 2.73913 12.6669 2.81377 12.6323L4.53047 14.5187C4.13859 14.88 3.61408 15.0706 3.07636 15.0472C2.33777 15.0472 1.69147 14.7436 1.69147 13.9556C1.69113 13.3811 2.06025 13.0287 2.59935 12.7413ZM3.07397 11.695L3.07431 11.6953H3.07329L3.07397 11.695ZM4.11112 10.5505C4.11112 11.0955 3.67751 11.3928 3.07397 11.695C2.55041 11.1849 2.38085 10.8979 2.38085 10.5555C2.36445 10.2431 2.525 9.94722 2.79855 9.78567C3.07211 9.62413 3.41427 9.62314 3.68879 9.78311C3.96331 9.94307 4.12563 10.238 4.11112 10.5505ZM13.0233 14.1653C13.0233 13.6247 13.2308 13.2261 13.6549 13.2261C14.0618 13.2261 14.2778 13.6025 14.2778 14.1742V14.2141C14.2778 14.7902 14.0435 15.1666 13.6505 15.1666C13.2484 15.1666 13.0233 14.7812 13.0233 14.2051V14.1653ZM9.58433 9.7334C9.16221 9.7334 8.95538 10.1304 8.95538 10.6683V10.6699V10.7078C8.95538 11.2809 9.17984 11.6646 9.57992 11.6646C9.97153 11.6646 10.2045 11.2898 10.2045 10.7164V10.6769C10.2045 10.1081 9.98882 9.7334 9.58433 9.7334Z" fill="#757677"/>
</svg>
