<svg width="123" height="47" viewBox="0 0 123 47" fill="none" xmlns="http://www.w3.org/2000/svg">
<path d="M63.4394 19.27C63.5994 19.27 63.7494 19.33 63.8594 19.45C63.8794 19.48 63.9094 19.51 63.9294 19.54L66.5394 22.15L69.1594 19.53C69.1594 19.53 69.1994 19.47 69.2294 19.45C69.3994 19.28 69.6594 19.23 69.8794 19.32C70.0994 19.41 70.2494 19.63 70.2494 19.87C70.2494 20.03 70.1894 20.18 70.0794 20.29L67.3894 23L70.0094 25.61C70.0094 25.61 70.0694 25.65 70.0894 25.68C70.2594 25.85 70.3094 26.11 70.2194 26.33C70.1294 26.55 69.9094 26.7 69.6694 26.7C69.5094 26.7 69.3594 26.64 69.2494 26.53L66.5494 23.84L63.8594 26.54H63.8494C63.7994 26.58 63.7294 26.63 63.6594 26.66C63.4394 26.75 63.1794 26.7 63.0094 26.53C62.8994 26.42 62.8294 26.27 62.8294 26.11C62.8294 25.95 62.8894 25.8 63.0094 25.69C63.0394 25.66 63.0694 25.64 63.1094 25.61L65.7094 23.01L63.0094 20.31C62.9594 20.25 62.9094 20.18 62.8794 20.11C62.7894 19.89 62.8394 19.63 63.0094 19.46C63.1194 19.35 63.2694 19.28 63.4294 19.28L63.4394 19.27ZM70.5094 15.33H63.1194C63.0294 15.33 62.9494 15.33 62.8694 15.33C62.7194 15.33 62.5694 15.33 62.3794 15.33C62.0494 15.33 61.7094 15.36 61.3894 15.42C61.0894 15.47 60.8094 15.57 60.5394 15.7C60.2794 15.83 60.0294 16.01 59.8194 16.22C59.8194 16.22 59.7994 16.24 59.7694 16.27C59.7094 16.33 59.6994 16.35 59.6794 16.37C59.5794 16.46 59.4894 16.55 59.3994 16.64C59.3494 16.69 59.2994 16.74 59.2494 16.79L59.0694 16.97L56.7694 19.27C56.7694 19.27 56.7294 19.31 56.7194 19.32C56.6794 19.36 56.6294 19.41 56.5794 19.45L56.5194 19.51C56.5194 19.51 56.4894 19.54 56.4794 19.55L56.4394 19.59L56.3894 19.64L54.3294 21.7C54.3294 21.7 54.2494 21.79 54.1894 21.84C54.1894 21.84 54.1627 21.8667 54.1094 21.92C54.1094 21.92 54.0294 22 53.9494 22.08C53.7994 22.22 53.6694 22.38 53.5394 22.54L53.4994 22.59C53.4994 22.59 53.4394 22.67 53.4194 22.71C53.3694 22.89 53.3694 23.07 53.4194 23.25C53.4394 23.29 53.4694 23.33 53.4994 23.37L53.5394 23.42C53.6694 23.58 53.8094 23.73 53.9694 23.89C53.9994 23.92 54.0294 23.95 54.0594 23.99L54.2194 24.15C54.2194 24.15 54.2894 24.22 54.3194 24.25L56.3894 26.32L56.5494 26.47C56.5494 26.47 56.5794 26.5 56.5894 26.51C56.6694 26.59 56.6994 26.62 56.7294 26.65C56.7294 26.65 56.7494 26.67 56.7794 26.7L59.0794 29.01C59.2494 29.18 59.3194 29.25 59.4194 29.35C59.5394 29.47 59.6094 29.54 59.6894 29.62C59.7094 29.64 59.7094 29.64 59.7794 29.72C59.7994 29.74 59.8194 29.76 59.8294 29.77C60.0394 29.98 60.2794 30.16 60.5394 30.29C60.8094 30.43 61.0994 30.52 61.3894 30.57C61.7194 30.62 62.0494 30.65 62.3894 30.66C62.5594 30.66 62.7194 30.66 62.8794 30.66H70.7194C70.8594 30.66 71.0094 30.66 71.2194 30.66C71.5594 30.66 71.8894 30.63 72.2194 30.57C72.5194 30.52 72.8094 30.42 73.0794 30.29C73.3494 30.15 73.5894 29.98 73.7994 29.77C74.0094 29.56 74.1894 29.31 74.3294 29.05C74.4694 28.78 74.5594 28.49 74.6094 28.19C74.6594 27.86 74.6894 27.52 74.6994 27.17C74.6994 27.07 74.6994 26.99 74.6994 26.8C74.6994 26.76 74.6994 26.74 74.6994 26.72V19.23C74.6994 19.23 74.6994 19.21 74.6994 19.19C74.6994 19.07 74.6994 19.02 74.6994 18.96C74.6994 18.9 74.6994 18.85 74.6994 18.79C74.6994 18.46 74.6694 18.12 74.6094 17.8C74.5594 17.5 74.4594 17.21 74.3294 16.95C74.1894 16.68 74.0194 16.44 73.8094 16.23C73.5994 16.02 73.3594 15.84 73.0994 15.71C72.8294 15.57 72.5394 15.48 72.2594 15.43C71.9294 15.38 71.5994 15.35 71.2594 15.34C71.0794 15.34 70.9194 15.34 70.7694 15.34C70.6894 15.34 70.6194 15.34 70.5194 15.34L70.5094 15.33ZM70.5994 14H70.7594C70.9194 14 71.0894 14 71.2694 14C71.6694 14 72.0694 14.04 72.4694 14.11C72.8994 14.18 73.3094 14.32 73.6994 14.52C74.0894 14.72 74.4494 14.98 74.7594 15.29C75.0694 15.6 75.3294 15.95 75.5294 16.35C75.7194 16.74 75.8594 17.15 75.9294 17.58C75.9894 17.97 76.0294 18.37 76.0294 18.76C76.0294 18.82 76.0294 18.87 76.0294 18.94C76.0294 19.01 76.0294 19.06 76.0294 19.18C76.0294 19.2133 76.0294 19.25 76.0294 19.29V26.69C76.0294 26.73 76.0294 26.77 76.0294 26.81C76.0294 27 76.0294 27.09 76.0294 27.19C76.0294 27.59 75.9894 28 75.9194 28.4C75.8494 28.83 75.7094 29.25 75.5094 29.64C75.3094 30.03 75.0494 30.39 74.7394 30.7C74.4294 31.01 74.0694 31.27 73.6694 31.47C73.2794 31.67 72.8594 31.8 72.4294 31.88C72.0294 31.95 71.6294 31.98 71.2294 31.99C71.0194 31.99 70.8594 31.99 70.7094 31.99H62.8594C62.6894 31.99 62.5194 31.99 62.3494 31.99C61.9494 31.99 61.5494 31.95 61.1494 31.88C60.7194 31.81 60.3094 31.67 59.9194 31.47C59.5294 31.27 59.1694 31.01 58.8794 30.72C58.8594 30.7 58.8394 30.68 58.7894 30.63C58.6594 30.5 58.5794 30.42 58.4494 30.3C58.4094 30.26 58.3794 30.23 58.3394 30.19L58.1094 29.96L55.8294 27.68C55.7594 27.61 55.7194 27.57 55.6494 27.51C55.6094 27.47 55.5794 27.44 55.5394 27.4L55.4194 27.28L53.3494 25.2L53.3094 25.16L53.2094 25.05C53.2094 25.05 53.1894 25.03 53.1694 25.01C53.0994 24.94 53.0394 24.88 53.0094 24.84C52.8394 24.67 52.6694 24.49 52.5194 24.3C52.3794 24.15 52.2594 23.97 52.1794 23.78L52.1594 23.72C52.0094 23.26 52.0094 22.76 52.1594 22.29L52.1794 22.23C52.2594 22.04 52.3794 21.86 52.5194 21.71C52.6694 21.52 52.8394 21.34 52.9994 21.18C53.0694 21.11 53.1194 21.05 53.1794 20.99L53.2094 20.96C53.2094 20.96 53.2194 20.95 53.2294 20.94C53.2794 20.89 53.3194 20.85 53.3594 20.81L55.4294 18.74L55.4794 18.69C55.4794 18.69 55.4994 18.67 55.5194 18.65C55.5694 18.6 55.5994 18.57 55.6294 18.54C55.6894 18.48 55.7494 18.42 55.8194 18.35L55.8394 18.33C55.8394 18.33 55.8694 18.3 55.8894 18.28L55.9694 18.2C55.9694 18.2 55.9994 18.17 56.0194 18.15L56.1494 18.02C56.1494 18.02 56.1994 17.97 56.2294 17.94L56.8494 17.32C57.0194 17.15 57.2094 16.96 57.4194 16.75L58.1194 16.05C58.2194 15.95 58.3094 15.86 58.3894 15.79L58.4594 15.72C58.5594 15.62 58.6594 15.53 58.7594 15.42C58.8494 15.33 58.8594 15.32 58.8694 15.3C59.1794 14.99 59.5294 14.73 59.9294 14.53C60.3194 14.34 60.7294 14.2 61.1594 14.12C61.5494 14.06 61.9494 14.02 62.3394 14.02C62.5294 14.02 62.6994 14.02 62.8494 14.02C62.9094 14.02 62.9594 14.02 63.0194 14.02H70.5894L70.5994 14Z" fill="black"/>
</svg>
