<svg width="13" height="16" viewBox="0 0 13 16" fill="none" xmlns="http://www.w3.org/2000/svg">
<path fill-rule="evenodd" clip-rule="evenodd" d="M7.14608 2.48117C7.14608 2.48117 8.37223 1.85217 9.29878 1.85217C10.0364 1.87169 10.7533 2.0766 11.3793 2.44329V8.30827C10.7295 8.01463 10.0199 7.85844 9.29878 7.85217C8.42827 7.88423 7.57453 8.09207 6.79308 8.46217C6.07768 8.86643 5.27256 9.10145 4.44412 9.14784C2.71031 9.14784 2.01678 8.16051 2.01678 8.16051L2.01679 2.50017C2.01794 2.50119 2.71175 3.11017 4.44412 3.11017C5.38169 3.09229 6.30387 2.87761 7.14608 2.48117ZM2.01679 1.16051L2.01678 1.16051L2.01679 1.14783H0.976501V15.1478H2.01679L2.01678 9.40584C2.01678 9.40584 2.71031 10.1102 4.44412 10.1102C5.3817 10.0923 6.30388 9.87762 7.14608 9.48117C7.14608 9.48117 8.37223 8.85217 9.29878 8.85217C10.1504 8.85958 10.986 9.07609 11.7261 9.48117L12.4196 9.92151V8.92151L12.4196 8.9215V2.9215L12.4196 2.92151V1.92151L11.7261 1.48117C10.986 1.07609 10.1504 0.859575 9.29878 0.852173C8.42827 0.884227 7.57453 1.09207 6.79308 1.46217C6.07768 1.86643 5.27256 2.10144 4.44412 2.14784C2.71191 2.14784 2.01807 1.16233 2.01679 1.16051Z" fill="white" fill-opacity="0.4"/>
</svg>
