<svg width="192" height="32" viewBox="0 0 192 32" fill="none" xmlns="http://www.w3.org/2000/svg">
<path d="M15.0255 5.88149C15.3341 5.18899 15.4885 4.84273 15.7035 4.73611C15.8901 4.64347 16.1093 4.64347 16.296 4.73611C16.5109 4.84273 16.6653 5.18899 16.974 5.88149L19.4327 11.3974C19.524 11.6021 19.5696 11.7045 19.6403 11.7829C19.7027 11.8522 19.7791 11.9077 19.8643 11.9457C19.9607 11.9886 20.0721 12.0004 20.2951 12.0239L26.3008 12.6578C27.0548 12.7373 27.4317 12.7771 27.5996 12.9486C27.7453 13.0975 27.8131 13.306 27.7827 13.5122C27.7477 13.7496 27.4661 14.0033 26.9029 14.5109L22.4167 18.5538C22.2503 18.7038 22.1669 18.7789 22.1143 18.8702C22.0676 18.9512 22.0384 19.0409 22.0287 19.1337C22.0176 19.2386 22.0408 19.3482 22.0873 19.5676L23.3404 25.4752C23.4977 26.2169 23.5764 26.5877 23.4652 26.8002C23.3685 26.985 23.1912 27.1138 22.9857 27.1486C22.7492 27.1886 22.4208 26.9993 21.764 26.6205L16.5327 23.6032C16.3385 23.4912 16.2415 23.4353 16.1383 23.4133C16.0469 23.394 15.9525 23.394 15.8612 23.4133C15.758 23.4353 15.6609 23.4912 15.4668 23.6032L10.2355 26.6205C9.57871 26.9993 9.25032 27.1886 9.01378 27.1486C8.8083 27.1138 8.63091 26.985 8.53432 26.8002C8.42314 26.5877 8.50179 26.2169 8.65911 25.4752L9.91212 19.5676C9.95863 19.3482 9.98188 19.2386 9.97084 19.1337C9.96107 19.0409 9.93191 18.9512 9.88524 18.8702C9.83251 18.7789 9.74926 18.7038 9.58276 18.5538L5.0966 14.5109C4.53339 14.0033 4.25178 13.7496 4.21676 13.5122C4.18636 13.306 4.25411 13.0975 4.3999 12.9486C4.56774 12.7771 4.94474 12.7373 5.69874 12.6578L11.7045 12.0239C11.9274 12.0004 12.0388 11.9886 12.1352 11.9457C12.2204 11.9077 12.2968 11.8522 12.3593 11.7829C12.4299 11.7045 12.4755 11.6021 12.5668 11.3974L15.0255 5.88149Z" fill="#FDCA28" stroke="#FDCA28" stroke-width="2" stroke-linecap="round" stroke-linejoin="round"/>
<path d="M55.0255 5.88149C55.3341 5.18899 55.4885 4.84273 55.7035 4.73611C55.8901 4.64347 56.1093 4.64347 56.296 4.73611C56.5109 4.84273 56.6653 5.18899 56.974 5.88149L59.4327 11.3974C59.524 11.6021 59.5696 11.7045 59.6403 11.7829C59.7027 11.8522 59.7791 11.9077 59.8643 11.9457C59.9607 11.9886 60.0721 12.0004 60.2951 12.0239L66.3008 12.6578C67.0548 12.7373 67.4317 12.7771 67.5996 12.9486C67.7453 13.0975 67.8131 13.306 67.7827 13.5122C67.7477 13.7496 67.4661 14.0033 66.9029 14.5109L62.4167 18.5538C62.2503 18.7038 62.1669 18.7789 62.1143 18.8702C62.0676 18.9512 62.0384 19.0409 62.0287 19.1337C62.0176 19.2386 62.0408 19.3482 62.0873 19.5676L63.3404 25.4752C63.4977 26.2169 63.5764 26.5877 63.4652 26.8002C63.3685 26.985 63.1912 27.1138 62.9857 27.1486C62.7492 27.1886 62.4208 26.9993 61.764 26.6205L56.5327 23.6032C56.3385 23.4912 56.2415 23.4353 56.1383 23.4133C56.0469 23.394 55.9525 23.394 55.8612 23.4133C55.758 23.4353 55.6609 23.4912 55.4668 23.6032L50.2355 26.6205C49.5787 26.9993 49.2503 27.1886 49.0138 27.1486C48.8083 27.1138 48.6309 26.985 48.5343 26.8002C48.4232 26.5877 48.5018 26.2169 48.6591 25.4752L49.9121 19.5676C49.9586 19.3482 49.9819 19.2386 49.9709 19.1337C49.9611 19.0409 49.9319 18.9512 49.8853 18.8702C49.8325 18.7789 49.7493 18.7038 49.5828 18.5538L45.0966 14.5109C44.5334 14.0033 44.2518 13.7496 44.2168 13.5122C44.1864 13.306 44.2541 13.0975 44.3999 12.9486C44.5678 12.7771 44.9448 12.7373 45.6988 12.6578L51.7045 12.0239C51.9274 12.0004 52.0388 11.9886 52.1352 11.9457C52.2205 11.9077 52.2968 11.8522 52.3593 11.7829C52.4299 11.7045 52.4755 11.6021 52.5668 11.3974L55.0255 5.88149Z" fill="#FDCA28" stroke="#FDCA28" stroke-width="2" stroke-linecap="round" stroke-linejoin="round"/>
<path d="M95.0255 5.88149C95.3341 5.18899 95.4885 4.84273 95.7035 4.73611C95.8901 4.64347 96.1093 4.64347 96.296 4.73611C96.5109 4.84273 96.6653 5.18899 96.974 5.88149L99.4327 11.3974C99.524 11.6021 99.5696 11.7045 99.6403 11.7829C99.7027 11.8522 99.7791 11.9077 99.8643 11.9457C99.9607 11.9886 100.072 12.0004 100.295 12.0239L106.301 12.6578C107.055 12.7373 107.432 12.7771 107.6 12.9486C107.745 13.0975 107.813 13.306 107.783 13.5122C107.748 13.7496 107.466 14.0033 106.903 14.5109L102.417 18.5538C102.25 18.7038 102.167 18.7789 102.114 18.8702C102.068 18.9512 102.038 19.0409 102.029 19.1337C102.018 19.2386 102.041 19.3482 102.087 19.5676L103.34 25.4752C103.498 26.2169 103.576 26.5877 103.465 26.8002C103.369 26.985 103.191 27.1138 102.986 27.1486C102.749 27.1886 102.421 26.9993 101.764 26.6205L96.5327 23.6032C96.3385 23.4912 96.2415 23.4353 96.1383 23.4133C96.0469 23.394 95.9525 23.394 95.8612 23.4133C95.758 23.4353 95.6609 23.4912 95.4668 23.6032L90.2355 26.6205C89.5787 26.9993 89.2503 27.1886 89.0138 27.1486C88.8083 27.1138 88.6309 26.985 88.5343 26.8002C88.4232 26.5877 88.5018 26.2169 88.6591 25.4752L89.9121 19.5676C89.9586 19.3482 89.9819 19.2386 89.9709 19.1337C89.9611 19.0409 89.9319 18.9512 89.8853 18.8702C89.8325 18.7789 89.7493 18.7038 89.5828 18.5538L85.0966 14.5109C84.5334 14.0033 84.2518 13.7496 84.2168 13.5122C84.1864 13.306 84.2541 13.0975 84.3999 12.9486C84.5678 12.7771 84.9448 12.7373 85.6988 12.6578L91.7045 12.0239C91.9274 12.0004 92.0388 11.9886 92.1352 11.9457C92.2205 11.9077 92.2968 11.8522 92.3593 11.7829C92.4299 11.7045 92.4755 11.6021 92.5668 11.3974L95.0255 5.88149Z" fill="#FDCA28" stroke="#FDCA28" stroke-width="2" stroke-linecap="round" stroke-linejoin="round"/>
<path d="M135.025 5.88149C135.334 5.18899 135.489 4.84273 135.703 4.73611C135.89 4.64347 136.109 4.64347 136.296 4.73611C136.511 4.84273 136.665 5.18899 136.974 5.88149L139.433 11.3974C139.524 11.6021 139.57 11.7045 139.64 11.7829C139.703 11.8522 139.779 11.9077 139.864 11.9457C139.961 11.9886 140.072 12.0004 140.295 12.0239L146.301 12.6578C147.055 12.7373 147.432 12.7771 147.6 12.9486C147.745 13.0975 147.813 13.306 147.783 13.5122C147.748 13.7496 147.466 14.0033 146.903 14.5109L142.417 18.5538C142.25 18.7038 142.167 18.7789 142.114 18.8702C142.068 18.9512 142.038 19.0409 142.029 19.1337C142.018 19.2386 142.041 19.3482 142.087 19.5676L143.34 25.4752C143.498 26.2169 143.576 26.5877 143.465 26.8002C143.369 26.985 143.191 27.1138 142.986 27.1486C142.749 27.1886 142.421 26.9993 141.764 26.6205L136.533 23.6032C136.339 23.4912 136.241 23.4353 136.138 23.4133C136.047 23.394 135.953 23.394 135.861 23.4133C135.758 23.4353 135.661 23.4912 135.467 23.6032L130.235 26.6205C129.579 26.9993 129.25 27.1886 129.014 27.1486C128.808 27.1138 128.631 26.985 128.534 26.8002C128.423 26.5877 128.502 26.2169 128.659 25.4752L129.912 19.5676C129.959 19.3482 129.982 19.2386 129.971 19.1337C129.961 19.0409 129.932 18.9512 129.885 18.8702C129.833 18.7789 129.749 18.7038 129.583 18.5538L125.097 14.5109C124.533 14.0033 124.252 13.7496 124.217 13.5122C124.186 13.306 124.254 13.0975 124.4 12.9486C124.568 12.7771 124.945 12.7373 125.699 12.6578L131.704 12.0239C131.927 12.0004 132.039 11.9886 132.135 11.9457C132.22 11.9077 132.297 11.8522 132.359 11.7829C132.43 11.7045 132.476 11.6021 132.567 11.3974L135.025 5.88149Z" stroke="#FDCA28" stroke-width="2" stroke-linecap="round" stroke-linejoin="round"/>
<path d="M175.025 5.88149C175.334 5.18899 175.489 4.84273 175.703 4.73611C175.89 4.64347 176.109 4.64347 176.296 4.73611C176.511 4.84273 176.665 5.18899 176.974 5.88149L179.433 11.3974C179.524 11.6021 179.57 11.7045 179.64 11.7829C179.703 11.8522 179.779 11.9077 179.864 11.9457C179.961 11.9886 180.072 12.0004 180.295 12.0239L186.301 12.6578C187.055 12.7373 187.432 12.7771 187.6 12.9486C187.745 13.0975 187.813 13.306 187.783 13.5122C187.748 13.7496 187.466 14.0033 186.903 14.5109L182.417 18.5538C182.25 18.7038 182.167 18.7789 182.114 18.8702C182.068 18.9512 182.038 19.0409 182.029 19.1337C182.018 19.2386 182.041 19.3482 182.087 19.5676L183.34 25.4752C183.498 26.2169 183.576 26.5877 183.465 26.8002C183.369 26.985 183.191 27.1138 182.986 27.1486C182.749 27.1886 182.421 26.9993 181.764 26.6205L176.533 23.6032C176.339 23.4912 176.241 23.4353 176.138 23.4133C176.047 23.394 175.953 23.394 175.861 23.4133C175.758 23.4353 175.661 23.4912 175.467 23.6032L170.235 26.6205C169.579 26.9993 169.25 27.1886 169.014 27.1486C168.808 27.1138 168.631 26.985 168.534 26.8002C168.423 26.5877 168.502 26.2169 168.659 25.4752L169.912 19.5676C169.959 19.3482 169.982 19.2386 169.971 19.1337C169.961 19.0409 169.932 18.9512 169.885 18.8702C169.833 18.7789 169.749 18.7038 169.583 18.5538L165.097 14.5109C164.533 14.0033 164.252 13.7496 164.217 13.5122C164.186 13.306 164.254 13.0975 164.4 12.9486C164.568 12.7771 164.945 12.7373 165.699 12.6578L171.704 12.0239C171.927 12.0004 172.039 11.9886 172.135 11.9457C172.22 11.9077 172.297 11.8522 172.359 11.7829C172.43 11.7045 172.476 11.6021 172.567 11.3974L175.025 5.88149Z" stroke="#FDCA28" stroke-width="2" stroke-linecap="round" stroke-linejoin="round"/>
</svg>
