<svg width="29" height="28" viewBox="0 0 29 28" fill="none" xmlns="http://www.w3.org/2000/svg">
<path fill-rule="evenodd" clip-rule="evenodd" d="M14.5 9.625C12.0838 9.625 10.125 11.5838 10.125 14C10.125 16.4163 12.0838 18.375 14.5 18.375C16.9163 18.375 18.875 16.4163 18.875 14C18.875 11.5838 16.9163 9.625 14.5 9.625ZM11.875 14C11.875 12.5503 13.0503 11.375 14.5 11.375C15.9497 11.375 17.125 12.5503 17.125 14C17.125 15.4497 15.9497 16.625 14.5 16.625C13.0503 16.625 11.875 15.4497 11.875 14Z" fill="#4D4D4D"/>
<path fill-rule="evenodd" clip-rule="evenodd" d="M14.4706 1.4585C13.9521 1.45848 13.5191 1.45848 13.1638 1.48273C12.7938 1.50797 12.4444 1.56239 12.1056 1.70271C11.3195 2.02834 10.6949 2.65292 10.3693 3.43905C10.1998 3.84832 10.1539 4.27964 10.1363 4.74845C10.1222 5.12532 9.93205 5.43976 9.65136 5.60181C9.37068 5.76386 9.00327 5.77135 8.66985 5.59512C8.25508 5.3759 7.85859 5.19999 7.41938 5.14217C6.57577 5.0311 5.72257 5.25972 5.0475 5.77772C4.75658 6.00095 4.53473 6.27636 4.3279 6.58413C4.12921 6.87978 3.91278 7.25467 3.65351 7.70375L3.62405 7.75478C3.36477 8.20384 3.14833 8.57871 2.99164 8.8986C2.82853 9.23161 2.70093 9.56145 2.65306 9.92501C2.54199 10.7686 2.77061 11.6218 3.2886 12.2969C3.55824 12.6482 3.90877 12.9037 4.30595 13.1533C4.62536 13.3539 4.80261 13.6759 4.80259 14.0002C4.80257 14.3243 4.62532 14.6463 4.30595 14.8469C3.90872 15.0965 3.55816 15.352 3.2885 15.7034C2.7705 16.3784 2.54189 17.2316 2.65294 18.0752C2.70081 18.4387 2.82841 18.7687 2.99152 19.1016C3.14822 19.4215 3.36466 19.7964 3.62393 20.2454L3.6534 20.2965C3.91266 20.7456 4.12909 21.1204 4.32779 21.4161C4.53461 21.7238 4.75647 21.9993 5.04739 22.2225C5.72246 22.7405 6.57565 22.9691 7.41927 22.8581C7.85845 22.8002 8.25492 22.6244 8.66967 22.4052C9.00314 22.2289 9.37059 22.2364 9.6513 22.3985C9.93202 22.5606 10.1222 22.875 10.1363 23.2519C10.1539 23.7207 10.1998 24.152 10.3693 24.5613C10.6949 25.3474 11.3195 25.972 12.1056 26.2976C12.4444 26.438 12.7938 26.4924 13.1638 26.5176C13.5191 26.5418 13.9521 26.5418 14.4706 26.5418H14.5295C15.0481 26.5418 15.4809 26.5418 15.8364 26.5176C16.2063 26.4924 16.5557 26.438 16.8945 26.2976C17.6806 25.972 18.3053 25.3474 18.6309 24.5613C18.8004 24.152 18.8463 23.7207 18.8638 23.2518C18.8779 22.875 19.0681 22.5606 19.3488 22.3984C19.6294 22.2364 19.997 22.2289 20.3304 22.4051C20.7451 22.6243 21.1416 22.8002 21.5808 22.858C22.4244 22.969 23.2776 22.7405 23.9527 22.2225C24.2436 21.9992 24.4654 21.7238 24.6723 21.4161C24.8709 21.1204 25.0874 20.7456 25.3466 20.2965L25.3761 20.2454C25.6353 19.7964 25.8519 19.4214 26.0086 19.1015C26.1717 18.7686 26.2992 18.4387 26.3471 18.0752C26.4582 17.2315 26.2295 16.3783 25.7115 15.7033C25.4419 15.3519 25.0913 15.0965 24.6942 14.8469C24.3748 14.6463 24.1975 14.3243 24.1975 14C24.1975 13.6759 24.3748 13.3541 24.6941 13.1534C25.0914 12.9038 25.442 12.6485 25.7116 12.2969C26.2296 11.6219 26.4583 10.7687 26.3472 9.92509C26.2993 9.56153 26.1718 9.23169 26.0087 8.89868C25.852 8.57881 25.6356 8.20397 25.3762 7.75494L25.3468 7.70387C25.0875 7.25479 24.8711 6.87986 24.6724 6.58421C24.4655 6.27644 24.2437 6.00103 23.9528 5.77779C23.2777 5.2598 22.4246 5.03118 21.5808 5.14225C21.1417 5.20007 20.7453 5.37595 20.3305 5.59517C19.9971 5.77142 19.6296 5.76392 19.3489 5.60184C19.0682 5.43978 18.8779 5.1253 18.8638 4.74839C18.8463 4.27959 18.8004 3.8483 18.6309 3.43905C18.3053 2.65292 17.6806 2.02834 16.8945 1.70271C16.5557 1.56239 16.2063 1.50797 15.8364 1.48273C15.4809 1.45848 15.0481 1.45848 14.5295 1.4585H14.4706ZM12.7753 3.31951C12.8653 3.28222 13.0021 3.24784 13.2829 3.22867C13.5717 3.20898 13.9445 3.2085 14.5001 3.2085C15.0556 3.2085 15.4285 3.20898 15.7171 3.22867C15.9981 3.24784 16.1348 3.28222 16.2248 3.31951C16.5821 3.46752 16.8661 3.75142 17.014 4.10876C17.0608 4.22147 17.0994 4.39718 17.1151 4.8138C17.1496 5.73824 17.6267 6.62834 18.4739 7.11739C19.3209 7.60646 20.3304 7.57463 21.1482 7.14236C21.5168 6.94755 21.6884 6.8932 21.8093 6.87728C22.1927 6.8268 22.5805 6.93071 22.8874 7.16616C22.9647 7.22547 23.0628 7.3267 23.2199 7.56035C23.3813 7.80053 23.5681 8.1232 23.8459 8.60433C24.1237 9.08548 24.3098 9.40861 24.4371 9.66848C24.5608 9.92129 24.5995 10.0569 24.6122 10.1535C24.6627 10.537 24.5587 10.9248 24.3233 11.2316C24.249 11.3284 24.1162 11.4498 23.7631 11.6716C22.9799 12.1638 22.4477 13.022 22.4475 14C22.4475 14.9782 22.9798 15.8365 23.7631 16.3287C24.1161 16.5505 24.2489 16.6718 24.3232 16.7687C24.5586 17.0755 24.6626 17.4633 24.6121 17.8468C24.5993 17.9434 24.5607 18.0789 24.4369 18.3318C24.3097 18.5916 24.1236 18.9147 23.8458 19.3959C23.568 19.877 23.3812 20.1997 23.2198 20.4399C23.0627 20.6735 22.9646 20.7748 22.8873 20.834C22.5804 21.0696 22.1926 21.1734 21.8091 21.123C21.6883 21.107 21.5166 21.0527 21.1481 20.8579C20.3303 20.4256 19.3208 20.3938 18.4736 20.8829C17.6267 21.372 17.1496 22.262 17.1151 23.1865C17.0994 23.6031 17.0608 23.7788 17.014 23.8916C16.8661 24.2489 16.5821 24.5328 16.2248 24.6809C16.1348 24.7181 15.9981 24.7525 15.7171 24.7716C15.4285 24.7914 15.0556 24.7918 14.5001 24.7918C13.9445 24.7918 13.5717 24.7914 13.2829 24.7716C13.0021 24.7525 12.8653 24.7181 12.7753 24.6809C12.418 24.5328 12.1341 24.2489 11.9861 23.8916C11.9394 23.7788 11.9007 23.6031 11.8851 23.1865C11.8505 22.2621 11.3734 21.372 10.5263 20.8829C9.67923 20.3938 8.66981 20.4257 7.85193 20.8579C7.48334 21.0528 7.31182 21.1071 7.19086 21.123C6.80739 21.1735 6.41958 21.0696 6.11273 20.8341C6.03543 20.7749 5.93727 20.6736 5.78025 20.4399C5.61884 20.1998 5.432 19.8771 5.15422 19.396C4.87642 18.9149 4.69041 18.5917 4.56312 18.3319C4.43929 18.0791 4.40069 17.9434 4.38798 17.8468C4.33749 17.4633 4.44141 17.0755 4.67687 16.7687C4.75114 16.6719 4.88396 16.5505 5.23698 16.3287C6.02026 15.8366 6.55254 14.9783 6.55259 14.0003C6.55264 13.022 6.02034 12.1637 5.237 11.6715C4.88406 11.4497 4.75124 11.3283 4.67697 11.2316C4.44153 10.9247 4.33761 10.5369 4.38809 10.1534C4.40081 10.0568 4.4394 9.92121 4.56323 9.66841C4.69053 9.40853 4.87654 9.08539 5.15433 8.60425C5.43212 8.12312 5.61895 7.80045 5.78037 7.56027C5.93739 7.32663 6.03554 7.22539 6.11283 7.16609C6.41969 6.93063 6.8075 6.82672 7.19096 6.8772C7.31194 6.89312 7.48347 6.94747 7.8521 7.14231C8.66994 7.57457 9.67931 7.60639 10.5263 7.11736C11.3734 6.62832 11.8505 5.73826 11.8851 4.81385C11.9007 4.3972 11.9394 4.22148 11.9861 4.10876C12.1341 3.75142 12.418 3.46752 12.7753 3.31951Z" fill="#4D4D4D"/>
</svg>
