<svg width="314" height="32" viewBox="0 0 314 32" fill="none" xmlns="http://www.w3.org/2000/svg">
<path d="M76.0253 5.88161C76.334 5.18911 76.4884 4.84285 76.7033 4.73623C76.89 4.64359 77.1092 4.64359 77.2958 4.73623C77.5108 4.84285 77.6652 5.18911 77.9738 5.88161L80.4325 11.3975C80.5238 11.6022 80.5694 11.7046 80.6401 11.783C80.7025 11.8523 80.7789 11.9078 80.8641 11.9458C80.9605 11.9887 81.072 12.0005 81.2949 12.024L87.3006 12.6579C88.0546 12.7375 88.4316 12.7773 88.5994 12.9487C88.7452 13.0976 88.8129 13.3062 88.7825 13.5123C88.7476 13.7497 88.466 14.0034 87.9028 14.511L83.4165 18.5539C83.2501 18.7039 83.1668 18.779 83.1141 18.8703C83.0674 18.9513 83.0382 19.041 83.0285 19.1338C83.0174 19.2387 83.0406 19.3484 83.0872 19.5677L84.3402 25.4753C84.4976 26.217 84.5762 26.5878 84.465 26.8004C84.3684 26.9852 84.191 27.114 83.9856 27.1488C83.749 27.1888 83.4206 26.9994 82.7638 26.6206L77.5325 23.6033C77.3384 23.4913 77.2413 23.4354 77.1381 23.4134C77.0468 23.3941 76.9524 23.3941 76.861 23.4134C76.7578 23.4354 76.6608 23.4913 76.4666 23.6033L71.2353 26.6206C70.5786 26.9994 70.2502 27.1888 70.0136 27.1488C69.8081 27.114 69.6308 26.9852 69.5342 26.8004C69.423 26.5878 69.5016 26.217 69.659 25.4753L70.912 19.5677C70.9585 19.3484 70.9817 19.2387 70.9707 19.1338C70.9609 19.041 70.9318 18.9513 70.8851 18.8703C70.8324 18.779 70.7491 18.7039 70.5826 18.5539L66.0965 14.511C65.5332 14.0034 65.2516 13.7497 65.2166 13.5123C65.1862 13.3062 65.254 13.0976 65.3997 12.9487C65.5676 12.7773 65.9446 12.7375 66.6986 12.6579L72.7043 12.024C72.9272 12.0005 73.0387 11.9887 73.135 11.9458C73.2203 11.9078 73.2966 11.8523 73.3591 11.783C73.4297 11.7046 73.4753 11.6022 73.5666 11.3975L76.0253 5.88161Z" fill="#FDCA28" stroke="#FDCA28" stroke-width="2" stroke-linecap="round" stroke-linejoin="round"/>
<path d="M116.025 5.88161C116.334 5.18911 116.488 4.84285 116.703 4.73623C116.89 4.64359 117.109 4.64359 117.296 4.73623C117.511 4.84285 117.665 5.18911 117.974 5.88161L120.433 11.3975C120.524 11.6022 120.569 11.7046 120.64 11.783C120.703 11.8523 120.779 11.9078 120.864 11.9458C120.961 11.9887 121.072 12.0005 121.295 12.024L127.301 12.6579C128.055 12.7375 128.432 12.7773 128.599 12.9487C128.745 13.0976 128.813 13.3062 128.783 13.5123C128.748 13.7497 128.466 14.0034 127.903 14.511L123.417 18.5539C123.25 18.7039 123.167 18.779 123.114 18.8703C123.067 18.9513 123.038 19.041 123.029 19.1338C123.017 19.2387 123.041 19.3484 123.087 19.5677L124.34 25.4753C124.498 26.217 124.576 26.5878 124.465 26.8004C124.368 26.9852 124.191 27.114 123.986 27.1488C123.749 27.1888 123.421 26.9994 122.764 26.6206L117.533 23.6033C117.338 23.4913 117.241 23.4354 117.138 23.4134C117.047 23.3941 116.952 23.3941 116.861 23.4134C116.758 23.4354 116.661 23.4913 116.467 23.6033L111.235 26.6206C110.579 26.9994 110.25 27.1888 110.014 27.1488C109.808 27.114 109.631 26.9852 109.534 26.8004C109.423 26.5878 109.502 26.217 109.659 25.4753L110.912 19.5677C110.958 19.3484 110.982 19.2387 110.971 19.1338C110.961 19.041 110.932 18.9513 110.885 18.8703C110.832 18.779 110.749 18.7039 110.583 18.5539L106.096 14.511C105.533 14.0034 105.252 13.7497 105.217 13.5123C105.186 13.3062 105.254 13.0976 105.4 12.9487C105.568 12.7773 105.945 12.7375 106.699 12.6579L112.704 12.024C112.927 12.0005 113.039 11.9887 113.135 11.9458C113.22 11.9078 113.297 11.8523 113.359 11.783C113.43 11.7046 113.475 11.6022 113.567 11.3975L116.025 5.88161Z" fill="#FDCA28" stroke="#FDCA28" stroke-width="2" stroke-linecap="round" stroke-linejoin="round"/>
<path d="M156.025 5.88161C156.334 5.18911 156.488 4.84285 156.703 4.73623C156.89 4.64359 157.109 4.64359 157.296 4.73623C157.511 4.84285 157.665 5.18911 157.974 5.88161L160.433 11.3975C160.524 11.6022 160.569 11.7046 160.64 11.783C160.703 11.8523 160.779 11.9078 160.864 11.9458C160.961 11.9887 161.072 12.0005 161.295 12.024L167.301 12.6579C168.055 12.7375 168.432 12.7773 168.599 12.9487C168.745 13.0976 168.813 13.3062 168.783 13.5123C168.748 13.7497 168.466 14.0034 167.903 14.511L163.417 18.5539C163.25 18.7039 163.167 18.779 163.114 18.8703C163.067 18.9513 163.038 19.041 163.029 19.1338C163.017 19.2387 163.041 19.3484 163.087 19.5677L164.34 25.4753C164.498 26.217 164.576 26.5878 164.465 26.8004C164.368 26.9852 164.191 27.114 163.986 27.1488C163.749 27.1888 163.421 26.9994 162.764 26.6206L157.533 23.6033C157.338 23.4913 157.241 23.4354 157.138 23.4134C157.047 23.3941 156.952 23.3941 156.861 23.4134C156.758 23.4354 156.661 23.4913 156.467 23.6033L151.235 26.6206C150.579 26.9994 150.25 27.1888 150.014 27.1488C149.808 27.114 149.631 26.9852 149.534 26.8004C149.423 26.5878 149.502 26.217 149.659 25.4753L150.912 19.5677C150.958 19.3484 150.982 19.2387 150.971 19.1338C150.961 19.041 150.932 18.9513 150.885 18.8703C150.832 18.779 150.749 18.7039 150.583 18.5539L146.096 14.511C145.533 14.0034 145.252 13.7497 145.217 13.5123C145.186 13.3062 145.254 13.0976 145.4 12.9487C145.568 12.7773 145.945 12.7375 146.699 12.6579L152.704 12.024C152.927 12.0005 153.039 11.9887 153.135 11.9458C153.22 11.9078 153.297 11.8523 153.359 11.783C153.43 11.7046 153.475 11.6022 153.567 11.3975L156.025 5.88161Z" fill="#FDCA28" stroke="#FDCA28" stroke-width="2" stroke-linecap="round" stroke-linejoin="round"/>
<path d="M196.025 5.88161C196.334 5.18911 196.488 4.84285 196.703 4.73623C196.89 4.64359 197.109 4.64359 197.296 4.73623C197.511 4.84285 197.665 5.18911 197.974 5.88161L200.433 11.3975C200.524 11.6022 200.569 11.7046 200.64 11.783C200.703 11.8523 200.779 11.9078 200.864 11.9458C200.961 11.9887 201.072 12.0005 201.295 12.024L207.301 12.6579C208.055 12.7375 208.432 12.7773 208.599 12.9487C208.745 13.0976 208.813 13.3062 208.783 13.5123C208.748 13.7497 208.466 14.0034 207.903 14.511L203.417 18.5539C203.25 18.7039 203.167 18.779 203.114 18.8704C203.067 18.9513 203.038 19.041 203.029 19.1338C203.017 19.2387 203.041 19.3484 203.087 19.5677L204.34 25.4753C204.498 26.217 204.576 26.5878 204.465 26.8004C204.368 26.9852 204.191 27.114 203.986 27.1488C203.749 27.1888 203.421 26.9994 202.764 26.6206L197.533 23.6033C197.338 23.4913 197.241 23.4354 197.138 23.4134C197.047 23.3941 196.952 23.3941 196.861 23.4134C196.758 23.4354 196.661 23.4913 196.467 23.6033L191.235 26.6206C190.579 26.9994 190.25 27.1888 190.014 27.1488C189.808 27.114 189.631 26.9852 189.534 26.8004C189.423 26.5878 189.502 26.217 189.659 25.4753L190.912 19.5677C190.958 19.3484 190.982 19.2387 190.971 19.1338C190.961 19.041 190.932 18.9513 190.885 18.8704C190.832 18.779 190.749 18.7039 190.583 18.5539L186.096 14.511C185.533 14.0034 185.252 13.7497 185.217 13.5123C185.186 13.3062 185.254 13.0976 185.4 12.9487C185.568 12.7773 185.945 12.7375 186.699 12.6579L192.704 12.024C192.927 12.0005 193.039 11.9887 193.135 11.9458C193.22 11.9078 193.297 11.8523 193.359 11.783C193.43 11.7046 193.475 11.6022 193.567 11.3975L196.025 5.88161Z" stroke="#FDCA28" stroke-width="2" stroke-linecap="round" stroke-linejoin="round"/>
<path d="M236.025 5.88161C236.334 5.18911 236.488 4.84285 236.703 4.73623C236.89 4.64359 237.109 4.64359 237.296 4.73623C237.511 4.84285 237.665 5.18911 237.974 5.88161L240.433 11.3975C240.524 11.6022 240.569 11.7046 240.64 11.783C240.703 11.8523 240.779 11.9078 240.864 11.9458C240.961 11.9887 241.072 12.0005 241.295 12.024L247.301 12.6579C248.055 12.7375 248.432 12.7773 248.599 12.9487C248.745 13.0976 248.813 13.3062 248.783 13.5123C248.748 13.7497 248.466 14.0034 247.903 14.511L243.417 18.5539C243.25 18.7039 243.167 18.779 243.114 18.8704C243.067 18.9513 243.038 19.041 243.029 19.1338C243.017 19.2387 243.041 19.3484 243.087 19.5677L244.34 25.4753C244.498 26.217 244.576 26.5878 244.465 26.8004C244.368 26.9852 244.191 27.114 243.986 27.1488C243.749 27.1888 243.421 26.9994 242.764 26.6206L237.533 23.6033C237.338 23.4913 237.241 23.4354 237.138 23.4134C237.047 23.3941 236.952 23.3941 236.861 23.4134C236.758 23.4354 236.661 23.4913 236.467 23.6033L231.235 26.6206C230.579 26.9994 230.25 27.1888 230.014 27.1488C229.808 27.114 229.631 26.9852 229.534 26.8004C229.423 26.5878 229.502 26.217 229.659 25.4753L230.912 19.5677C230.958 19.3484 230.982 19.2387 230.971 19.1338C230.961 19.041 230.932 18.9513 230.885 18.8704C230.832 18.779 230.749 18.7039 230.583 18.5539L226.096 14.511C225.533 14.0034 225.252 13.7497 225.217 13.5123C225.186 13.3062 225.254 13.0976 225.4 12.9487C225.568 12.7773 225.945 12.7375 226.699 12.6579L232.704 12.024C232.927 12.0005 233.039 11.9887 233.135 11.9458C233.22 11.9078 233.297 11.8523 233.359 11.783C233.43 11.7046 233.475 11.6022 233.567 11.3975L236.025 5.88161Z" stroke="#FDCA28" stroke-width="2" stroke-linecap="round" stroke-linejoin="round"/>
</svg>
