<svg width="17" height="16" viewBox="0 0 17 16" fill="none" xmlns="http://www.w3.org/2000/svg">
<path fill-rule="evenodd" clip-rule="evenodd" d="M0.988266 8C0.988266 12.4183 4.56999 16 8.98827 16C13.4065 16 16.9883 12.4183 16.9883 8C16.9883 3.58172 13.4065 0 8.98827 0C4.56999 0 0.988266 3.58172 0.988266 8ZM14.5514 8.88819L14.5407 8.87116L15.8845 8.56112L16.0217 8.8174C15.8044 10.7076 14.8428 12.3713 13.4374 13.508L12.8929 13.37L12.8952 11.3738L14.5514 8.88819ZM12.2207 13.7214L12.2667 11.7018L10.3192 10.9719L7.96057 12.2418V13.6926L10.8797 14.7563L10.8713 14.6808L12.2207 13.7214ZM9.98289 7.89794V10.4451L7.63826 11.7086L5.18807 10.3472L5.17534 7.62962L7.18349 6.32734L9.98289 7.89794ZM12.2728 6.40923L10.3579 7.39099L7.56979 5.82504L7.4085 3.69205L10.216 2.23105L12.2761 3.52905L12.2728 6.40923ZM12.8993 3.76978L12.8961 6.26514L14.182 8.30288L15.8117 7.86914L15.9901 6.94338C15.7734 5.49521 15.1182 4.19042 14.1638 3.16852L12.8993 3.76978ZM9.96581 1.64417V0.986584C9.6462 0.942437 9.31979 0.919622 8.98804 0.919622C7.48821 0.919622 6.09729 1.38597 4.95239 2.18157L5.21282 3.0399H7.28371L9.96581 1.64417ZM4.5515 7.58296L4.56395 10.4539L3.47533 11.5425L3.52456 11.5988L2.94491 11.6913C2.28695 10.6165 1.9077 9.35251 1.9077 7.99997C1.9077 7.5391 1.95173 7.08851 2.03582 6.65219L3.43937 6.02607L4.5515 7.58296ZM3.34334 5.32523L2.25201 5.8127C2.66181 4.54976 3.41691 3.44241 4.40594 2.60204L4.62703 3.27147L3.34334 5.32523ZM3.32763 12.254L4.00291 12.1455L5.53656 13.8983L5.52958 14.1796C4.66829 13.6966 3.91828 13.0387 3.32763 12.254ZM6.14559 14.4866L6.151 14.3028H7.71576L9.68092 15.0468C9.45296 15.069 9.22182 15.0803 8.98804 15.0803C7.97708 15.0803 7.0156 14.8684 6.14559 14.4866Z" fill="#757677"/>
</svg>
