<svg width="17" height="16" viewBox="0 0 17 16" fill="none" xmlns="http://www.w3.org/2000/svg">
<path fill-rule="evenodd" clip-rule="evenodd" d="M10.2355 3.05176e-05H5.2355H4.2355H4.23526L4.23551 0.0241494L4.23677 6.00003H1.90201H1.23526H0.902008V15H1.90201V7.00003H4.23698H4.90526H5.2355V1.00003H10.2358L10.237 6.00003H11.2355V5.00003H15.902V15H16.902V5.00003H16.9022V4.00003H11.2355V3.05176e-05H11.2353H10.2355ZM8.02701 6.66671H9.77701C11.4585 6.6572 12.8429 7.98622 12.902 9.66671V10.6667H13.9019C14.2701 10.6667 14.5686 10.9651 14.5686 11.3333V14C14.5686 14.3682 14.2702 14.6666 13.902 14.6667V16H11.902V14.6667H5.90201V16H3.90201V14.6667H3.90193C3.53374 14.6667 3.23526 14.3682 3.23526 14V11.3333C3.23526 10.9651 3.53374 10.6667 3.90193 10.6667H4.90201V9.66671C4.96111 7.98622 6.34551 6.6572 8.02701 6.66671ZM2.90201 7.98965H3.90201V8.98965H2.90201V7.98965ZM9.23526 4.00003H8.23526V5.00003H9.23526V4.00003ZM6.23526 4.00003H7.23526V5.00003H6.23526V4.00003ZM14.902 5.98965H13.902V6.98965H14.902V5.98965ZM13.902 7.98965H14.902V8.98965H13.902V7.98965ZM7.23526 1.99999L6.23526 1.98965V2.99999H7.23526V1.99999ZM8.23526 2.00003H9.23526V3.00003H8.23526V2.00003ZM11.902 10.6667C11.902 9.14166 11.902 7.66666 8.90201 7.66666C5.90201 7.66666 5.90201 9.14332 5.90201 10.6667H11.902ZM5.048 11.4064C5.46222 11.4064 5.798 11.7422 5.798 12.1564C5.798 12.5706 5.46222 12.9064 5.048 12.9064C4.63379 12.9064 4.298 12.5706 4.298 12.1564C4.298 11.7422 4.63379 11.4064 5.048 11.4064ZM13.4857 12.1564C13.4857 11.7422 13.15 11.4064 12.7357 11.4064H12.7354C12.3213 11.4066 11.9857 11.7423 11.9857 12.1564C11.9857 12.5706 12.3215 12.9064 12.7357 12.9064C13.15 12.9064 13.4857 12.5706 13.4857 12.1564ZM13.902 13.3334V13.9897H3.90201V13.3334H6.40201V13.323C6.40201 13.1389 6.55125 12.9897 6.73534 12.9897H11.0687C11.2528 12.9897 11.402 13.1389 11.402 13.323V13.3334H13.902Z" fill="white" fill-opacity="0.4"/>
</svg>
